<?xml version="1.0" encoding="utf-8"?>
<!-- Generator: Adobe Illustrator 21.0.0, SVG Export Plug-In . SVG Version: 6.00 Build 0)  -->
<svg version="1.1" id="Layer_1" xmlns="http://www.w3.org/2000/svg" xmlns:xlink="http://www.w3.org/1999/xlink" x="0px" y="0px"
	 viewBox="0 0 246 34" style="enable-background:new 0 0 246 34;" xml:space="preserve">
<style type="text/css">
	.st0{fill:#FF2800;}
</style>
<g>
	<path class="st0" d="M27.9,24.9l0,5.6c-2.5,2-6.8,3.5-11.5,3.5c-9.9,0-16.1-8-16.1-17c0-9,6.1-16.8,15.7-16.8c3.4,0,7.8,1,11.1,2.9
		l0.8,10.5c-2-7.7-6.6-11.7-12-11.7c-6.4,0-11.5,5-11.5,15.1c0,9.8,4.8,15.4,12,15.4C20.6,32.3,25,30.4,27.9,24.9"/>
	<path class="st0" d="M59.6,5v15.8c0,8.7-3.7,13.1-11.7,13.1c-7.9,0-12-4-12-12.4V5c0-2.8-0.5-4.1-2.6-4.7H42c-2,0.6-2.6,2-2.6,4.7
		v15.5c0,7.8,3,11.7,9.2,11.7c6.3,0,9.3-4,9.3-11.6V5c0-2.8-0.5-4.1-2.6-4.7h6.9C60.3,1.1,59.6,2.4,59.6,5"/>
	<path class="st0" d="M89.3,25l-0.5,8.5H67.3c2.1-0.6,2.6-1.9,2.6-4.7V5c0-2.8-0.5-4.1-2.6-4.7H76c-2,0.6-2.6,2-2.6,4.7v26.7h5
		C86.4,31.8,87.8,30.4,89.3,25"/>
	<path class="st0" d="M116.4,11c-1.2-6.7-2.9-8.9-9-8.9h-3.2v26.7c0,2.7,0.5,4.1,2.5,4.7h-8.6c2-0.6,2.6-1.9,2.6-4.7V2.1h-3.2
		c-6.1,0-7.6,2.2-9.1,8.9l0.9-10.6h26.3L116.4,11z"/>
	<path class="st0" d="M147,5v15.8c0,8.7-3.7,13.1-11.7,13.1c-7.9,0-12-4-12-12.4V5c0-2.8-0.5-4.1-2.6-4.7h8.7c-2,0.6-2.6,2-2.6,4.7
		v15.5c0,7.8,3,11.7,9.2,11.7c6.3,0,9.3-4,9.3-11.6V5c0-2.8-0.5-4.1-2.6-4.7h6.9C147.7,1.1,147,2.4,147,5"/>
	<path class="st0" d="M182.3,33.5h-6.4c0-1.7-1-3-3.2-5.9l-7.5-9.5h-4.3v10.7c0,2.7,0.6,4.1,2.6,4.7h-8.7c2.1-0.6,2.6-1.9,2.6-4.7V5
		c0-2.8-0.5-4.1-2.6-4.7h11.5c6.1,0,12,2.1,12,8.4c0,5.4-4.4,8.4-9.4,9.2l7.4,9C178.1,29.2,181.6,33.2,182.3,33.5 M160.9,16.5h5.1
		c5.3,0,8.5-2.6,8.5-7.5c0-7-6.1-7-9-7h-4.6V16.5z"/>
	<path class="st0" d="M212.1,28.8l-3.2-7H194l-3.1,6.9c-1.6,3.7-1,4.5-0.2,4.9h-5.2c0.9-0.3,1.8-1,4.5-7.2l11.5-26h1l13.8,29.5
		c1.2,2.7,2,3.4,2.8,3.7h-7.3C212.7,33.2,213.7,32.2,212.1,28.8 M208.2,20.2l-6.9-15l-6.6,15H208.2z"/>
	<path class="st0" d="M245.6,25l-0.5,8.5h-21.4c2.1-0.6,2.6-1.9,2.6-4.7V5c0-2.8-0.5-4.1-2.6-4.7h8.7c-2,0.6-2.6,2-2.6,4.7v26.7h5
		C242.8,31.8,244.1,30.4,245.6,25"/>
</g>
</svg>
