<?xml version="1.0" encoding="utf-8"?>
<!-- Generator: Adobe Illustrator 21.0.0, SVG Export Plug-In . SVG Version: 6.00 Build 0)  -->
<svg version="1.1" id="Layer_1" xmlns="http://www.w3.org/2000/svg" xmlns:xlink="http://www.w3.org/1999/xlink" x="0px" y="0px"
	 viewBox="0 0 205 34" style="enable-background:new 0 0 205 34;" xml:space="preserve">
<style type="text/css">
	.st0{fill:#FF2800;}
</style>
<g>
	<path class="st0" d="M31.9,33.6h-8.6c2.1-0.6,2.6-1.9,2.6-6.1V16.3H6.2v11.2c0,4.2,0.5,5.5,2.5,6.1H0c2.1-0.6,2.6-1.9,2.6-6.1v-21
		C2.6,2.3,2.1,1,0,0.4h8.6c-2,0.6-2.5,2-2.5,6.1v8h19.7v-8c0-4.2-0.5-5.5-2.6-6.1h8.6c-2,0.6-2.5,2-2.5,6.1v21
		C29.4,31.6,29.9,33,31.9,33.6"/>
	<path class="st0" d="M62.9,28.8l-3.2-7H44.8l-3.1,6.9c-1.6,3.7-1,4.5-0.2,4.9h-5.2c0.9-0.3,1.8-1,4.5-7.2l11.5-26h1l13.8,29.5
		c1.2,2.7,2,3.4,2.8,3.7h-7.3C63.6,33.3,64.5,32.2,62.9,28.8 M59,20.3l-6.9-15l-6.6,15H59z"/>
	<path class="st0" d="M98.7,24.4c0,5.4-4.5,9.2-12.2,9.2H74.5c2.1-0.6,2.6-1.9,2.6-4.7V5.1c0-2.8-0.5-4.1-2.6-4.7h10.9
		c7.3,0,12.1,2.5,12.1,7.9c0,4.1-2.8,7.1-8,8.1C95.4,17.2,98.7,19.7,98.7,24.4 M80.7,2.1v13.6h4c6.3,0,9.1-3,9.1-6.9
		c0-4.5-3-6.7-8.7-6.7H80.7z M94.8,24.5c0-4.4-3.2-7.1-10-7.1h-4.2v14.5H86C91.6,31.9,94.8,29.2,94.8,24.5"/>
	<path class="st0" d="M112.6,33.6h-8.6c2.1-0.6,2.6-1.9,2.6-6.1v-21c0-4.2-0.5-5.5-2.6-6.1h8.6c-2,0.6-2.5,2-2.5,6.1v21
		C110,31.6,110.5,33,112.6,33.6"/>
	<path class="st0" d="M145,11.1c-1.2-6.7-2.9-8.9-9-8.9h-3.2v26.7c0,2.7,0.5,4.1,2.5,4.7h-8.6c2-0.6,2.6-1.9,2.6-4.7V2.2h-3.2
		c-6.1,0-7.6,2.2-9.1,8.9L118,0.4h26.3L145,11.1z"/>
	<path class="st0" d="M170.8,28.8l-3.2-7h-14.8l-3.1,6.9c-1.6,3.7-1,4.5-0.2,4.9h-5.2c0.9-0.3,1.8-1,4.5-7.2l11.5-26h1L175,29.9
		c1.2,2.7,2,3.4,2.8,3.7h-7.3C171.4,33.3,172.3,32.2,170.8,28.8 M166.8,20.3l-6.9-15l-6.6,15H166.8z"/>
	<path class="st0" d="M205,11.1c-1.2-6.7-2.9-8.9-9-8.9h-3.2v26.7c0,2.7,0.5,4.1,2.5,4.7h-8.6c2-0.6,2.6-1.9,2.6-4.7V2.2h-3.2
		c-6.1,0-7.6,2.2-9.1,8.9l0.9-10.6h26.3L205,11.1z"/>
</g>
</svg>
