<?xml version="1.0" encoding="utf-8"?>
<!-- Generator: Adobe Illustrator 21.0.0, SVG Export Plug-In . SVG Version: 6.00 Build 0)  -->
<svg version="1.1" id="Layer_1" xmlns="http://www.w3.org/2000/svg" xmlns:xlink="http://www.w3.org/1999/xlink" x="0px" y="0px"
	 viewBox="0 0 964 135.8" style="enable-background:new 0 0 964 135.8;" xml:space="preserve">
<style type="text/css">
	.st0{fill:#FF2800;}
</style>
<g>
	<path class="st0" d="M624.4,72.7v-4.8c0-42.3-34-67.9-91.8-67.9c-57.9,0-91.7,24.9-91.7,67.9h0c0,42.3,37.6,68,95.5,67.9
		c54.3-0.1,85.4-43.7,85.4-43.7l-1.3-5.7c-33.1,24.8-63.9,26.1-84.1,26.5c-39.8,0.8-83.3-13.2-89.6-36.7l3.5-3.5H624.4z M532.5,23.5
		c40.6,0,81.6,16.8,86.7,39.6h-169l-3.5-3.3C454.8,38.7,493.9,23.5,532.5,23.5"/>
	<path class="st0" d="M245.2,135.8c-57.9,0-91.9-25.6-91.9-67.9S187.3,0,245.2,0C303,0,337,25.6,337,67.9S303,135.8,245.2,135.8
		 M245.2,112.3c43.4,0,87.2-19.2,87.2-44.4c0-25.3-43.9-44.4-87.2-44.4s-87.3,19.2-87.3,44.4C157.8,93.1,201.8,112.3,245.2,112.3"/>
	<path class="st0" d="M394.3,2.9l2.4,6.8v73.7c0,29.7-10.2,43.1-40.1,43.1c-16,0-30.2-6.5-30.2-6.5l-2.2,9.6c0,0,15.2,5.1,30.8,5.9
		c21.6,1.1,34.7-1.9,45.5-8.2c13-7.7,19.7-21.9,19.7-47.3V2.9H394.3z"/>
	<path class="st0" d="M790.9,1.4c0,0-8.1-1.4-17.7-1.4c-23,0-39.9,12.5-53.1,27.4V2.9h-25.9l2.4,6.8v123.2h23.5V75.5
		c0-18.9,15.4-51.4,38.4-62.1c16.8-7.8,34.6-2.5,34.6-2.5L790.9,1.4z"/>
	<polygon class="st0" points="163.8,12.5 163.8,2.9 0,2.9 0,12.5 65.9,12.5 70.2,16.8 70.2,132.9 93.6,132.9 93.6,16.6 97.9,12.5 	
		"/>
	<path class="st0" d="M880.4,0c-31.5,0-58.8,5.2-85.6,18.4L797,28c6.8-3.7,34.9-14.7,83.3-14.7c33.7,0,56.5,15.4,59.8,31.7l-4.3,4.1
		l-67.2,3.5c-62.6,3-88.4,14.8-88.4,41.5c0,26.9,25.3,41.5,72.8,41.5c34.3,0,66.7-11.3,87.5-22.8v20H964V48.6
		C964,19,932.4,0,880.4,0 M854.2,112.3c-30.2,0-42.7-6.9-44.9-19c-2.6-14.1,16.6-29,53.4-30.7l73.2-3.9l4.7,4.1v7.7
		C940.5,93,896.1,112.3,854.2,112.3"/>
	<polygon class="st0" points="644.9,2.9 647.4,9.7 647.4,132.9 670.8,132.9 670.8,2.9 	"/>
</g>
</svg>
